<svg width="207" height="45" viewBox="0 0 207 45" fill="none" xmlns="http://www.w3.org/2000/svg">
<path d="M57.8281 12.7852H60.582L69.2773 26.7305V12.7852H71.4922V30H68.8789L60.0547 16.0664V30H57.8281V12.7852ZM80.1172 17.168C81.0078 17.168 81.8711 17.3789 82.707 17.8008C83.543 18.2148 84.1797 18.7539 84.6172 19.418C85.0391 20.0508 85.3203 20.7891 85.4609 21.6328C85.5859 22.2109 85.6484 23.1328 85.6484 24.3984H76.4492C76.4883 25.6719 76.7891 26.6953 77.3516 27.4688C77.9141 28.2344 78.7852 28.6172 79.9648 28.6172C81.0664 28.6172 81.9453 28.2539 82.6016 27.5273C82.9766 27.1055 83.2422 26.6172 83.3984 26.0625H85.4727C85.418 26.5234 85.2344 27.0391 84.9219 27.6094C84.6172 28.1719 84.2734 28.6328 83.8906 28.9922C83.25 29.6172 82.457 30.0391 81.5117 30.2578C81.0039 30.3828 80.4297 30.4453 79.7891 30.4453C78.2266 30.4453 76.9023 29.8789 75.8164 28.7461C74.7305 27.6055 74.1875 26.0117 74.1875 23.9648C74.1875 21.9492 74.7344 20.3125 75.8281 19.0547C76.9219 17.7969 78.3516 17.168 80.1172 17.168ZM83.4805 22.7227C83.3945 21.8086 83.1953 21.0781 82.8828 20.5312C82.3047 19.5156 81.3398 19.0078 79.9883 19.0078C79.0195 19.0078 78.207 19.3594 77.5508 20.0625C76.8945 20.7578 76.5469 21.6445 76.5078 22.7227H83.4805ZM93.4766 17.168C94.3672 17.168 95.2305 17.3789 96.0664 17.8008C96.9023 18.2148 97.5391 18.7539 97.9766 19.418C98.3984 20.0508 98.6797 20.7891 98.8203 21.6328C98.9453 22.2109 99.0078 23.1328 99.0078 24.3984H89.8086C89.8477 25.6719 90.1484 26.6953 90.7109 27.4688C91.2734 28.2344 92.1445 28.6172 93.3242 28.6172C94.4258 28.6172 95.3047 28.2539 95.9609 27.5273C96.3359 27.1055 96.6016 26.6172 96.7578 26.0625H98.832C98.7773 26.5234 98.5938 27.0391 98.2812 27.6094C97.9766 28.1719 97.6328 28.6328 97.25 28.9922C96.6094 29.6172 95.8164 30.0391 94.8711 30.2578C94.3633 30.3828 93.7891 30.4453 93.1484 30.4453C91.5859 30.4453 90.2617 29.8789 89.1758 28.7461C88.0898 27.6055 87.5469 26.0117 87.5469 23.9648C87.5469 21.9492 88.0938 20.3125 89.1875 19.0547C90.2812 17.7969 91.7109 17.168 93.4766 17.168ZM96.8398 22.7227C96.7539 21.8086 96.5547 21.0781 96.2422 20.5312C95.6641 19.5156 94.6992 19.0078 93.3477 19.0078C92.3789 19.0078 91.5664 19.3594 90.9102 20.0625C90.2539 20.7578 89.9062 21.6445 89.8672 22.7227H96.8398ZM102.945 23.8711C102.945 25.2148 103.23 26.3398 103.801 27.2461C104.371 28.1523 105.285 28.6055 106.543 28.6055C107.52 28.6055 108.32 28.1875 108.945 27.3516C109.578 26.5078 109.895 25.3008 109.895 23.7305C109.895 22.1445 109.57 20.9727 108.922 20.2148C108.273 19.4492 107.473 19.0664 106.52 19.0664C105.457 19.0664 104.594 19.4727 103.93 20.2852C103.273 21.0977 102.945 22.293 102.945 23.8711ZM106.121 17.2266C107.082 17.2266 107.887 17.4297 108.535 17.8359C108.91 18.0703 109.336 18.4805 109.812 19.0664V12.7266H111.84V30H109.941V28.2539C109.449 29.0273 108.867 29.5859 108.195 29.9297C107.523 30.2734 106.754 30.4453 105.887 30.4453C104.488 30.4453 103.277 29.8594 102.254 28.6875C101.23 27.5078 100.719 25.9414 100.719 23.9883C100.719 22.1602 101.184 20.5781 102.113 19.2422C103.051 17.8984 104.387 17.2266 106.121 17.2266ZM122.176 15.5391C122.207 14.6641 122.359 14.0234 122.633 13.6172C123.125 12.8984 124.074 12.5391 125.48 12.5391C125.613 12.5391 125.75 12.543 125.891 12.5508C126.031 12.5586 126.191 12.5703 126.371 12.5859V14.5078C126.152 14.4922 125.992 14.4844 125.891 14.4844C125.797 14.4766 125.707 14.4727 125.621 14.4727C124.98 14.4727 124.598 14.6406 124.473 14.9766C124.348 15.3047 124.285 16.1484 124.285 17.5078H126.371V19.1719H124.262V30H122.176V19.1719H120.43V17.5078H122.176V15.5391ZM133.309 28.6406C134.707 28.6406 135.664 28.1133 136.18 27.0586C136.703 25.9961 136.965 24.8164 136.965 23.5195C136.965 22.3477 136.777 21.3945 136.402 20.6602C135.809 19.5039 134.785 18.9258 133.332 18.9258C132.043 18.9258 131.105 19.418 130.52 20.4023C129.934 21.3867 129.641 22.5742 129.641 23.9648C129.641 25.3008 129.934 26.4141 130.52 27.3047C131.105 28.1953 132.035 28.6406 133.309 28.6406ZM133.391 17.0859C135.008 17.0859 136.375 17.625 137.492 18.7031C138.609 19.7812 139.168 21.3672 139.168 23.4609C139.168 25.4844 138.676 27.1562 137.691 28.4766C136.707 29.7969 135.18 30.457 133.109 30.457C131.383 30.457 130.012 29.875 128.996 28.7109C127.98 27.5391 127.473 25.9688 127.473 24C127.473 21.8906 128.008 20.2109 129.078 18.9609C130.148 17.7109 131.586 17.0859 133.391 17.0859ZM141.746 17.4492H143.75V19.6172C143.914 19.1953 144.316 18.6836 144.957 18.082C145.598 17.4727 146.336 17.168 147.172 17.168C147.211 17.168 147.277 17.1719 147.371 17.1797C147.465 17.1875 147.625 17.2031 147.852 17.2266V19.4531C147.727 19.4297 147.609 19.4141 147.5 19.4062C147.398 19.3984 147.285 19.3945 147.16 19.3945C146.098 19.3945 145.281 19.7383 144.711 20.4258C144.141 21.1055 143.855 21.8906 143.855 22.7812V30H141.746V17.4492ZM157.695 23.8711C157.695 25.2148 157.98 26.3398 158.551 27.2461C159.121 28.1523 160.035 28.6055 161.293 28.6055C162.27 28.6055 163.07 28.1875 163.695 27.3516C164.328 26.5078 164.645 25.3008 164.645 23.7305C164.645 22.1445 164.32 20.9727 163.672 20.2148C163.023 19.4492 162.223 19.0664 161.27 19.0664C160.207 19.0664 159.344 19.4727 158.68 20.2852C158.023 21.0977 157.695 22.293 157.695 23.8711ZM160.871 17.2266C161.832 17.2266 162.637 17.4297 163.285 17.8359C163.66 18.0703 164.086 18.4805 164.562 19.0664V12.7266H166.59V30H164.691V28.2539C164.199 29.0273 163.617 29.5859 162.945 29.9297C162.273 30.2734 161.504 30.4453 160.637 30.4453C159.238 30.4453 158.027 29.8594 157.004 28.6875C155.98 27.5078 155.469 25.9414 155.469 23.9883C155.469 22.1602 155.934 20.5781 156.863 19.2422C157.801 17.8984 159.137 17.2266 160.871 17.2266ZM169.777 17.4492H171.781V19.6172C171.945 19.1953 172.348 18.6836 172.988 18.082C173.629 17.4727 174.367 17.168 175.203 17.168C175.242 17.168 175.309 17.1719 175.402 17.1797C175.496 17.1875 175.656 17.2031 175.883 17.2266V19.4531C175.758 19.4297 175.641 19.4141 175.531 19.4062C175.43 19.3984 175.316 19.3945 175.191 19.3945C174.129 19.3945 173.312 19.7383 172.742 20.4258C172.172 21.1055 171.887 21.8906 171.887 22.7812V30H169.777V17.4492ZM177.711 17.5078H179.855V30H177.711V17.5078ZM177.711 12.7852H179.855V15.1758H177.711V12.7852ZM184.086 17.4492L187.438 27.668L190.941 17.4492H193.25L188.516 30H186.266L181.637 17.4492H184.086ZM200.281 17.168C201.172 17.168 202.035 17.3789 202.871 17.8008C203.707 18.2148 204.344 18.7539 204.781 19.418C205.203 20.0508 205.484 20.7891 205.625 21.6328C205.75 22.2109 205.812 23.1328 205.812 24.3984H196.613C196.652 25.6719 196.953 26.6953 197.516 27.4688C198.078 28.2344 198.949 28.6172 200.129 28.6172C201.23 28.6172 202.109 28.2539 202.766 27.5273C203.141 27.1055 203.406 26.6172 203.562 26.0625H205.637C205.582 26.5234 205.398 27.0391 205.086 27.6094C204.781 28.1719 204.438 28.6328 204.055 28.9922C203.414 29.6172 202.621 30.0391 201.676 30.2578C201.168 30.3828 200.594 30.4453 199.953 30.4453C198.391 30.4453 197.066 29.8789 195.98 28.7461C194.895 27.6055 194.352 26.0117 194.352 23.9648C194.352 21.9492 194.898 20.3125 195.992 19.0547C197.086 17.7969 198.516 17.168 200.281 17.168ZM203.645 22.7227C203.559 21.8086 203.359 21.0781 203.047 20.5312C202.469 19.5156 201.504 19.0078 200.152 19.0078C199.184 19.0078 198.371 19.3594 197.715 20.0625C197.059 20.7578 196.711 21.6445 196.672 22.7227H203.645Z" fill="#3D5170"/>
<path fill-rule="evenodd" clip-rule="evenodd" d="M0 22.25C0 9.96178 9.96198 0 22.2504 0C34.538 0 44.5 9.96178 44.5 22.25C44.5 25.0644 43.9774 27.7567 43.0241 30.2353C41.3767 27.6868 38.5104 26 35.25 26C30.1414 26 26 30.1414 26 35.25C26 38.5104 27.6868 41.3768 30.2354 43.0241C27.7569 43.9775 25.0647 44.5 22.2504 44.5C9.96198 44.5 0 34.5382 0 22.25ZM30.2354 43.0241C31.6801 43.9579 33.4018 44.5 35.25 44.5C40.3586 44.5 44.5 40.3586 44.5 35.25C44.5 33.4017 43.9579 31.6801 43.0241 30.2353C40.7682 36.1002 36.1001 40.7682 30.2354 43.0241Z" fill="#0EC261"/>
</svg>
