<svg width="22" height="22" viewBox="0 0 22 22" fill="none" xmlns="http://www.w3.org/2000/svg">
<path fill-rule="evenodd" clip-rule="evenodd" d="M0 10.75C0 4.81299 4.81309 0 10.7502 0C16.6869 0 21.5 4.81299 21.5 10.75C21.5 12.1098 21.2475 13.4106 20.7869 14.6081C19.991 13.3768 18.6061 12.5618 17.0309 12.5618C14.5627 12.5618 12.5618 14.5627 12.5618 17.0309C12.5618 18.6061 13.3768 19.991 14.6081 20.7869C13.4106 21.2475 12.1099 21.5 10.7502 21.5C4.81309 21.5 0 16.687 0 10.75ZM14.6081 20.7869C15.3061 21.2381 16.1379 21.5 17.0309 21.5C19.4991 21.5 21.5 19.4991 21.5 17.0309C21.5 16.1379 21.2381 15.3061 20.7869 14.6081C19.697 17.4417 17.4416 19.697 14.6081 20.7869Z" fill="#0EC261"/>
</svg>
